<svg xmlns="http://www.w3.org/2000/svg" viewBox="0 0 398.2 189.3">
  <defs>
    <style>
      .a {
        fill: none;
        stroke: #f59120;
        stroke-miterlimit: 10;
        stroke-width: 9px;
      }

      .b {
        fill: #fff;
      }
    </style>
  </defs>
  <title>Asset 2</title>
  <g>
    <g>
      <g>
        <g>
          <path class="a" d="M38.3,34H55.5l17,27.8L89.4,34h17.2v72.4H85.8V80.4L72.5,102.1,59.1,80.4v26.1H38.3ZM50.6,97.7V47.9L72.5,83.3,94.3,47.9V97.7h2.5v-55H94.3L72.5,78.4,50.6,42.7H48.1v55Z"/>
          <path class="a" d="M140.1,108.3a33.7,33.7,0,0,1-11.1-1.7,22.4,22.4,0,0,1-8.5-5.2,23.1,23.1,0,0,1-5.4-8.8A37,37,0,0,1,113.2,80V34H134V79.1a10,10,0,0,0,1.4,5.8q1.4,2,4.7,2t4.7-2a10,10,0,0,0,1.4-5.8V34h20.9V80a37,37,0,0,1-1.9,12.5,22,22,0,0,1-14,14A33.7,33.7,0,0,1,140.1,108.3Zm0-13q-14.7,0-14.7-16V42.7h-2.5V79.3q0,9.1,4.4,14t12.8,4.8q8.3,0,12.8-4.8t4.5-14V42.7h-2.6V79.3Q154.8,95.2,140.1,95.2Z"/>
          <path class="a" d="M173.7,34h17.1l18,27.9V34h20.4v72.4H212.1L194.2,78.6v27.8H173.7Zm11.6,63.7V47.6l32.2,50.2h2.5v-55h-2.5V92.8L185.4,42.7h-2.5v55Z"/>
          <path class="a" d="M234.6,70.3a42.8,42.8,0,0,1,2.7-15.7,36.9,36.9,0,0,1,7.4-12,32.1,32.1,0,0,1,10.9-7.7A33.6,33.6,0,0,1,269,32.3a37.5,37.5,0,0,1,9.9,1.2,43.8,43.8,0,0,1,7.5,2.7,34.2,34.2,0,0,1,6.3,3.8L282.4,60.1a34.6,34.6,0,0,0-3.4-2.5,31,31,0,0,0-4-1.7,15.6,15.6,0,0,0-5.2-.8,12.9,12.9,0,0,0-5.6,1.2,14.3,14.3,0,0,0-4.4,3.3,15.1,15.1,0,0,0-3,4.8,16.2,16.2,0,0,0-1.1,5.9,15.6,15.6,0,0,0,1.1,5.9,15.3,15.3,0,0,0,3.1,4.8,14.5,14.5,0,0,0,4.6,3.3,13.8,13.8,0,0,0,5.8,1.2,16.6,16.6,0,0,0,5.6-.9,19.4,19.4,0,0,0,4.1-2,15.3,15.3,0,0,0,3.4-2.8l10.3,20.1a28.7,28.7,0,0,1-6.3,4.2,49.5,49.5,0,0,1-7.5,2.8,38.1,38.1,0,0,1-24.1-1.5,32.9,32.9,0,0,1-11.1-7.8,35.6,35.6,0,0,1-7.3-12A43.6,43.6,0,0,1,234.6,70.3Zm12.3,0a29.1,29.1,0,0,1,1.6-9.8,24.2,24.2,0,0,1,4.5-7.9,21.2,21.2,0,0,1,7.1-5.3,22,22,0,0,1,9.4-2,24.6,24.6,0,0,1,4.5.4,18.9,18.9,0,0,1,3.4.9,12.2,12.2,0,0,1,2.8,1.3l1.4-2.6-3.3-1.4-3.8-1a25.5,25.5,0,0,0-5-.4,23.9,23.9,0,0,0-9.5,2,24.2,24.2,0,0,0-8,5.6,27.7,27.7,0,0,0-5.6,8.8,30.1,30.1,0,0,0-2.1,11.5,31.3,31.3,0,0,0,2,11.5,26.1,26.1,0,0,0,5.5,8.7,24.3,24.3,0,0,0,8.2,5.6,25.6,25.6,0,0,0,10,2,23.4,23.4,0,0,0,5.3-.5,29,29,0,0,0,4-1.2,18.8,18.8,0,0,0,3.3-1.7L281.3,92a11.9,11.9,0,0,1-2.9,1.6,20.3,20.3,0,0,1-3.5,1.1,20.8,20.8,0,0,1-4.8.5,23.1,23.1,0,0,1-9.7-2,21.4,21.4,0,0,1-7.3-5.3,23.7,23.7,0,0,1-4.6-7.9A29.1,29.1,0,0,1,246.9,70.3Z"/>
          <path class="a" d="M296.1,34h20.8V58.6h11.6V34h20.9v72.4H328.5V79.6H316.9v26.8H296.1Zm12.3,63.7V70.3h28.7V97.7h2.5v-55h-2.5v25H308.4v-25h-2.5v55Z"/>
        </g>
        <g>
          <path class="a" d="M4.5,110.6H21.7l17,27.8,16.9-27.8H72.8V183H52V156.9L38.7,178.6,25.3,156.9V183H4.5Zm12.3,63.7V124.5l21.9,35.4,21.8-35.4v49.8H63v-55H60.5L38.7,155,16.8,119.3H14.3v55Z"/>
          <path class="a" d="M99,110.6h15.6L139.3,183H118.8l-2.1-6.5H96.9L94.8,183H74.3ZM88.8,174.3l1.9-5.4h32.2l1.9,5.4h2.7l-18.9-55H105l-18.9,55Zm18-52.4,15.2,44.4H91.6Zm4.4,38.7-4.4-12.7-4.4,12.7Z"/>
          <path class="a" d="M140.8,183V110.6h18.1a54.1,54.1,0,0,1,16.4,2.3,31.7,31.7,0,0,1,12.1,6.8,29.5,29.5,0,0,1,7.5,11.3,43.9,43.9,0,0,1,2.6,15.7,43.9,43.9,0,0,1-2.6,15.7,29.5,29.5,0,0,1-7.5,11.3,32.3,32.3,0,0,1-12.1,6.9,52.8,52.8,0,0,1-16.4,2.3Zm9.8-8.7h8.3q14.3,0,21.5-7.2t7.3-20.4q0-13.1-7.3-20.3t-21.5-7.2h-8.3Zm2.5-2.6V121.9h5.8q12.4,0,19.3,6.2t6.9,18.6q0,12.4-6.9,18.7t-19.3,6.3Zm8.5-9.3q7.3,0,11.3-3.9t4-11.8q0-7.9-4-11.7t-11.3-3.8Z"/>
          <path class="a" d="M202.9,110.6H220l18,27.9V110.6h20.4V183H241.2l-17.9-27.8V183H202.9Zm11.6,63.7V124.1l32.2,50.2h2.5v-55h-2.5v50.2l-32.2-50.2h-2.5v55Z"/>
          <path class="a" d="M265.2,110.6h38.4v19H286v8h17.3v18H286V164h18.3v19H265.2Zm31.9,63.7v-2.6H277.5V147.9h18.6v-2.6H277.5V121.9h19.5v-2.6H275v55Z"/>
          <path class="a" d="M308.4,160.5a29.5,29.5,0,0,0,4.5,1.2,32.2,32.2,0,0,0,4.4.9,38.7,38.7,0,0,0,5,.3q4.5,0,4.5-3.7a4.3,4.3,0,0,0-1.4-2.9,42.8,42.8,0,0,0-3.5-3.3l-4.5-4a34.4,34.4,0,0,1-4.5-5,26.7,26.7,0,0,1-3.5-6.4,22.3,22.3,0,0,1-1.4-8.1,22.9,22.9,0,0,1,1.7-9,18,18,0,0,1,4.6-6.5,20,20,0,0,1,6.9-4,25.9,25.9,0,0,1,8.5-1.4l4.7.3,4.2.5,4.2.7v20.3l-1.8-.2-1.8-.2h-3.5l-1.7.3a3.3,3.3,0,0,0-1.4.8,2,2,0,0,0-.6,1.5,3.5,3.5,0,0,0,1.3,2.2l3.2,3,4.2,4a31.3,31.3,0,0,1,7.4,11.8,24.4,24.4,0,0,1,1.3,8.3,28.6,28.6,0,0,1-1.4,9,19.4,19.4,0,0,1-4.2,7.3,20.1,20.1,0,0,1-7.4,4.9,28.7,28.7,0,0,1-10.7,1.8,58.3,58.3,0,0,1-6.9-.4l-5.6-.9a43.3,43.3,0,0,1-5.2-1.3Zm8.2,13,2.9.5,2.9.4,3.1.2a20.1,20.1,0,0,0,5.3-.7,12.8,12.8,0,0,0,4.6-2.3,11.7,11.7,0,0,0,3.3-4.2,14.4,14.4,0,0,0,1.2-6.2,13.2,13.2,0,0,0-1.4-6,27.7,27.7,0,0,0-3.6-5.4,65,65,0,0,0-4.7-5q-2.5-2.4-4.7-4.8a29.4,29.4,0,0,1-3.6-4.9,9.9,9.9,0,0,1-1.4-5,7.9,7.9,0,0,1,2.2-6q2.2-2.1,7.2-2.1h1.6l1.6.2h1.6v-2.8h-1.5l-1.5-.2h-1.7a13.7,13.7,0,0,0-8.7,2.7q-3.4,2.7-3.4,8.3a11.9,11.9,0,0,0,1.4,5.7,28.5,28.5,0,0,0,3.6,5.2q2.2,2.6,4.7,4.9t4.7,4.8a26.5,26.5,0,0,1,3.6,5,11.2,11.2,0,0,1,1.4,5.4q0,5.2-3.2,7.9t-8.7,2.7a31.1,31.1,0,0,1-6.1-.5l-2.8-.5Z"/>
          <path class="a" d="M352.4,160.5a29.5,29.5,0,0,0,4.5,1.2,32.2,32.2,0,0,0,4.4.9,38.8,38.8,0,0,0,5,.3q4.5,0,4.5-3.7a4.3,4.3,0,0,0-1.4-2.9,42.8,42.8,0,0,0-3.5-3.3l-4.5-4a34.3,34.3,0,0,1-4.5-5,26.7,26.7,0,0,1-3.5-6.4,22.2,22.2,0,0,1-1.4-8.1,22.9,22.9,0,0,1,1.7-9,18,18,0,0,1,4.6-6.5,20,20,0,0,1,6.9-4,25.9,25.9,0,0,1,8.5-1.4l4.7.3,4.2.5,4.2.7v20.3l-1.8-.2-1.8-.2h-3.5l-1.7.3a3.3,3.3,0,0,0-1.4.8,2,2,0,0,0-.6,1.5,3.5,3.5,0,0,0,1.3,2.2l3.2,3,4.2,4a31.3,31.3,0,0,1,7.4,11.8,24.4,24.4,0,0,1,1.3,8.3,28.6,28.6,0,0,1-1.4,9,19.4,19.4,0,0,1-4.2,7.3,20,20,0,0,1-7.4,4.9,28.7,28.7,0,0,1-10.7,1.8,58.3,58.3,0,0,1-6.9-.4l-5.6-.9a43.4,43.4,0,0,1-5.2-1.3Zm8.2,13,2.9.5,2.9.4,3.1.2a20.1,20.1,0,0,0,5.3-.7,12.8,12.8,0,0,0,4.6-2.3,11.7,11.7,0,0,0,3.3-4.2,14.4,14.4,0,0,0,1.2-6.2,13.1,13.1,0,0,0-1.4-6,27.7,27.7,0,0,0-3.6-5.4,65,65,0,0,0-4.7-5q-2.5-2.4-4.7-4.8a29.4,29.4,0,0,1-3.6-4.9,9.9,9.9,0,0,1-1.4-5,7.9,7.9,0,0,1,2.2-6q2.2-2.1,7.2-2.1h1.6l1.6.2h1.6v-2.8h-1.5l-1.5-.2h-1.7a13.7,13.7,0,0,0-8.7,2.7q-3.4,2.7-3.4,8.3a11.9,11.9,0,0,0,1.4,5.7,28.5,28.5,0,0,0,3.6,5.2q2.2,2.6,4.7,4.9t4.7,4.8a26.5,26.5,0,0,1,3.6,5,11.2,11.2,0,0,1,1.4,5.4q0,5.2-3.2,7.9t-8.7,2.7a31.1,31.1,0,0,1-6.1-.5l-2.8-.5Z"/>
        </g>
      </g>
      <g>
        <g>
          <path class="b" d="M38.3,34H55.5l17,27.8L89.4,34h17.2v72.4H85.8V80.4L72.5,102.1,59.1,80.4v26.1H38.3ZM50.6,97.7V47.9L72.5,83.3,94.3,47.9V97.7h2.5v-55H94.3L72.5,78.4,50.6,42.7H48.1v55Z"/>
          <path class="b" d="M140.1,108.3a33.7,33.7,0,0,1-11.1-1.7,22.4,22.4,0,0,1-8.5-5.2,23.1,23.1,0,0,1-5.4-8.8A37,37,0,0,1,113.2,80V34H134V79.1a10,10,0,0,0,1.4,5.8q1.4,2,4.7,2t4.7-2a10,10,0,0,0,1.4-5.8V34h20.9V80a37,37,0,0,1-1.9,12.5,22,22,0,0,1-14,14A33.7,33.7,0,0,1,140.1,108.3Zm0-13q-14.7,0-14.7-16V42.7h-2.5V79.3q0,9.1,4.4,14t12.8,4.8q8.3,0,12.8-4.8t4.5-14V42.7h-2.6V79.3Q154.8,95.2,140.1,95.2Z"/>
          <path class="b" d="M173.7,34h17.1l18,27.9V34h20.4v72.4H212.1L194.2,78.6v27.8H173.7Zm11.6,63.7V47.6l32.2,50.2h2.5v-55h-2.5V92.8L185.4,42.7h-2.5v55Z"/>
          <path class="b" d="M234.6,70.3a42.8,42.8,0,0,1,2.7-15.7,36.9,36.9,0,0,1,7.4-12,32.1,32.1,0,0,1,10.9-7.7A33.6,33.6,0,0,1,269,32.3a37.5,37.5,0,0,1,9.9,1.2,43.8,43.8,0,0,1,7.5,2.7,34.2,34.2,0,0,1,6.3,3.8L282.4,60.1a34.6,34.6,0,0,0-3.4-2.5,31,31,0,0,0-4-1.7,15.6,15.6,0,0,0-5.2-.8,12.9,12.9,0,0,0-5.6,1.2,14.3,14.3,0,0,0-4.4,3.3,15.1,15.1,0,0,0-3,4.8,16.2,16.2,0,0,0-1.1,5.9,15.6,15.6,0,0,0,1.1,5.9,15.3,15.3,0,0,0,3.1,4.8,14.5,14.5,0,0,0,4.6,3.3,13.8,13.8,0,0,0,5.8,1.2,16.6,16.6,0,0,0,5.6-.9,19.4,19.4,0,0,0,4.1-2,15.3,15.3,0,0,0,3.4-2.8l10.3,20.1a28.7,28.7,0,0,1-6.3,4.2,49.5,49.5,0,0,1-7.5,2.8,38.1,38.1,0,0,1-24.1-1.5,32.9,32.9,0,0,1-11.1-7.8,35.6,35.6,0,0,1-7.3-12A43.6,43.6,0,0,1,234.6,70.3Zm12.3,0a29.1,29.1,0,0,1,1.6-9.8,24.2,24.2,0,0,1,4.5-7.9,21.2,21.2,0,0,1,7.1-5.3,22,22,0,0,1,9.4-2,24.6,24.6,0,0,1,4.5.4,18.9,18.9,0,0,1,3.4.9,12.2,12.2,0,0,1,2.8,1.3l1.4-2.6-3.3-1.4-3.8-1a25.5,25.5,0,0,0-5-.4,23.9,23.9,0,0,0-9.5,2,24.2,24.2,0,0,0-8,5.6,27.7,27.7,0,0,0-5.6,8.8,30.1,30.1,0,0,0-2.1,11.5,31.3,31.3,0,0,0,2,11.5,26.1,26.1,0,0,0,5.5,8.7,24.3,24.3,0,0,0,8.2,5.6,25.6,25.6,0,0,0,10,2,23.4,23.4,0,0,0,5.3-.5,29,29,0,0,0,4-1.2,18.8,18.8,0,0,0,3.3-1.7L281.3,92a11.9,11.9,0,0,1-2.9,1.6,20.3,20.3,0,0,1-3.5,1.1,20.8,20.8,0,0,1-4.8.5,23.1,23.1,0,0,1-9.7-2,21.4,21.4,0,0,1-7.3-5.3,23.7,23.7,0,0,1-4.6-7.9A29.1,29.1,0,0,1,246.9,70.3Z"/>
          <path class="b" d="M296.1,34h20.8V58.6h11.6V34h20.9v72.4H328.5V79.6H316.9v26.8H296.1Zm12.3,63.7V70.3h28.7V97.7h2.5v-55h-2.5v25H308.4v-25h-2.5v55Z"/>
        </g>
        <g>
          <path class="b" d="M4.5,110.6H21.7l17,27.8,16.9-27.8H72.8V183H52V156.9L38.7,178.6,25.3,156.9V183H4.5Zm12.3,63.7V124.5l21.9,35.4,21.8-35.4v49.8H63v-55H60.5L38.7,155,16.8,119.3H14.3v55Z"/>
          <path class="b" d="M99,110.6h15.6L139.3,183H118.8l-2.1-6.5H96.9L94.8,183H74.3ZM88.8,174.3l1.9-5.4h32.2l1.9,5.4h2.7l-18.9-55H105l-18.9,55Zm18-52.4,15.2,44.4H91.6Zm4.4,38.7-4.4-12.7-4.4,12.7Z"/>
          <path class="b" d="M140.8,183V110.6h18.1a54.1,54.1,0,0,1,16.4,2.3,31.7,31.7,0,0,1,12.1,6.8,29.5,29.5,0,0,1,7.5,11.3,43.9,43.9,0,0,1,2.6,15.7,43.9,43.9,0,0,1-2.6,15.7,29.5,29.5,0,0,1-7.5,11.3,32.3,32.3,0,0,1-12.1,6.9,52.8,52.8,0,0,1-16.4,2.3Zm9.8-8.7h8.3q14.3,0,21.5-7.2t7.3-20.4q0-13.1-7.3-20.3t-21.5-7.2h-8.3Zm2.5-2.6V121.9h5.8q12.4,0,19.3,6.2t6.9,18.6q0,12.4-6.9,18.7t-19.3,6.3Zm8.5-9.3q7.3,0,11.3-3.9t4-11.8q0-7.9-4-11.7t-11.3-3.8Z"/>
          <path class="b" d="M202.9,110.6H220l18,27.9V110.6h20.4V183H241.2l-17.9-27.8V183H202.9Zm11.6,63.7V124.1l32.2,50.2h2.5v-55h-2.5v50.2l-32.2-50.2h-2.5v55Z"/>
          <path class="b" d="M265.2,110.6h38.4v19H286v8h17.3v18H286V164h18.3v19H265.2Zm31.9,63.7v-2.6H277.5V147.9h18.6v-2.6H277.5V121.9h19.5v-2.6H275v55Z"/>
          <path class="b" d="M308.4,160.5a29.5,29.5,0,0,0,4.5,1.2,32.2,32.2,0,0,0,4.4.9,38.7,38.7,0,0,0,5,.3q4.5,0,4.5-3.7a4.3,4.3,0,0,0-1.4-2.9,42.8,42.8,0,0,0-3.5-3.3l-4.5-4a34.4,34.4,0,0,1-4.5-5,26.7,26.7,0,0,1-3.5-6.4,22.3,22.3,0,0,1-1.4-8.1,22.9,22.9,0,0,1,1.7-9,18,18,0,0,1,4.6-6.5,20,20,0,0,1,6.9-4,25.9,25.9,0,0,1,8.5-1.4l4.7.3,4.2.5,4.2.7v20.3l-1.8-.2-1.8-.2h-3.5l-1.7.3a3.3,3.3,0,0,0-1.4.8,2,2,0,0,0-.6,1.5,3.5,3.5,0,0,0,1.3,2.2l3.2,3,4.2,4a31.3,31.3,0,0,1,7.4,11.8,24.4,24.4,0,0,1,1.3,8.3,28.6,28.6,0,0,1-1.4,9,19.4,19.4,0,0,1-4.2,7.3,20.1,20.1,0,0,1-7.4,4.9,28.7,28.7,0,0,1-10.7,1.8,58.3,58.3,0,0,1-6.9-.4l-5.6-.9a43.3,43.3,0,0,1-5.2-1.3Zm8.2,13,2.9.5,2.9.4,3.1.2a20.1,20.1,0,0,0,5.3-.7,12.8,12.8,0,0,0,4.6-2.3,11.7,11.7,0,0,0,3.3-4.2,14.4,14.4,0,0,0,1.2-6.2,13.2,13.2,0,0,0-1.4-6,27.7,27.7,0,0,0-3.6-5.4,65,65,0,0,0-4.7-5q-2.5-2.4-4.7-4.8a29.4,29.4,0,0,1-3.6-4.9,9.9,9.9,0,0,1-1.4-5,7.9,7.9,0,0,1,2.2-6q2.2-2.1,7.2-2.1h1.6l1.6.2h1.6v-2.8h-1.5l-1.5-.2h-1.7a13.7,13.7,0,0,0-8.7,2.7q-3.4,2.7-3.4,8.3a11.9,11.9,0,0,0,1.4,5.7,28.5,28.5,0,0,0,3.6,5.2q2.2,2.6,4.7,4.9t4.7,4.8a26.5,26.5,0,0,1,3.6,5,11.2,11.2,0,0,1,1.4,5.4q0,5.2-3.2,7.9t-8.7,2.7a31.1,31.1,0,0,1-6.1-.5l-2.8-.5Z"/>
          <path class="b" d="M352.4,160.5a29.5,29.5,0,0,0,4.5,1.2,32.2,32.2,0,0,0,4.4.9,38.8,38.8,0,0,0,5,.3q4.5,0,4.5-3.7a4.3,4.3,0,0,0-1.4-2.9,42.8,42.8,0,0,0-3.5-3.3l-4.5-4a34.3,34.3,0,0,1-4.5-5,26.7,26.7,0,0,1-3.5-6.4,22.2,22.2,0,0,1-1.4-8.1,22.9,22.9,0,0,1,1.7-9,18,18,0,0,1,4.6-6.5,20,20,0,0,1,6.9-4,25.9,25.9,0,0,1,8.5-1.4l4.7.3,4.2.5,4.2.7v20.3l-1.8-.2-1.8-.2h-3.5l-1.7.3a3.3,3.3,0,0,0-1.4.8,2,2,0,0,0-.6,1.5,3.5,3.5,0,0,0,1.3,2.2l3.2,3,4.2,4a31.3,31.3,0,0,1,7.4,11.8,24.4,24.4,0,0,1,1.3,8.3,28.6,28.6,0,0,1-1.4,9,19.4,19.4,0,0,1-4.2,7.3,20,20,0,0,1-7.4,4.9,28.7,28.7,0,0,1-10.7,1.8,58.3,58.3,0,0,1-6.9-.4l-5.6-.9a43.4,43.4,0,0,1-5.2-1.3Zm8.2,13,2.9.5,2.9.4,3.1.2a20.1,20.1,0,0,0,5.3-.7,12.8,12.8,0,0,0,4.6-2.3,11.7,11.7,0,0,0,3.3-4.2,14.4,14.4,0,0,0,1.2-6.2,13.1,13.1,0,0,0-1.4-6,27.7,27.7,0,0,0-3.6-5.4,65,65,0,0,0-4.7-5q-2.5-2.4-4.7-4.8a29.4,29.4,0,0,1-3.6-4.9,9.9,9.9,0,0,1-1.4-5,7.9,7.9,0,0,1,2.2-6q2.2-2.1,7.2-2.1h1.6l1.6.2h1.6v-2.8h-1.5l-1.5-.2h-1.7a13.7,13.7,0,0,0-8.7,2.7q-3.4,2.7-3.4,8.3a11.9,11.9,0,0,0,1.4,5.7,28.5,28.5,0,0,0,3.6,5.2q2.2,2.6,4.7,4.9t4.7,4.8a26.5,26.5,0,0,1,3.6,5,11.2,11.2,0,0,1,1.4,5.4q0,5.2-3.2,7.9t-8.7,2.7a31.1,31.1,0,0,1-6.1-.5l-2.8-.5Z"/>
        </g>
      </g>
    </g>
    <path class="b" d="M142,23.2l-1.1.9a2,2,0,0,1-1.1.6,5.2,5.2,0,0,1-2.3-1V14.8H142v8.4ZM126.9,11.4V3.3l1.6-.9,3.1,2.2v6.8ZM135.5,23V4.2l1.6-1V23.5l-1.6-.5Zm2.1-11.6V3.1l1-.6A6,6,0,0,0,142,4.7v6.7Zm11.1,13a6.4,6.4,0,0,1-2.7-1.3V4.8a4.1,4.1,0,0,0,2-3h-.1a6.6,6.6,0,0,1-2.3.4A4.6,4.6,0,0,1,141.9.1l-5.5,3.1L131.8,0l-7.1,4.1c-2.3,1.3-3.8,2.8-3.8,5.3v2h-.5a2.9,2.9,0,0,0-3.1,2.8,2.5,2.5,0,0,0,.9,2h.1a1.8,1.8,0,0,1,2.1-1.5h.6v4.3a3.6,3.6,0,0,1-1.3,3.1h0c2.8-.3,5.2-1.7,5.2-4.5V4.6l1.7-1V22.2c0,1.7-.7,2.2-2.3,2.2s-3.7-.8-5.5-.8-4.1,1.7-4.3,4.4h.2a3.4,3.4,0,0,1,3.1-1.3c1.7,0,3.4.9,5.1.9s4.1-1.4,4.1-3.8V14.8h4.7v8.5a7,7,0,0,0-3.4,3.7v.2a6,6,0,0,1,3.5-1.1,8.4,8.4,0,0,1,5.1,1.6l4.5-3.4c1.4,1.1,3,2.3,4.1,3.4l3.2-3.1Zm15.6-.4-2.4,1.4a4.8,4.8,0,0,1-2-4.3c0-1.8.6-3.2,2.4-3.2a6.8,6.8,0,0,1,2,.3V24Zm-2.2-6.7-1.9.3V11.4h.2l3.9,2.7v3.7a8.1,8.1,0,0,0-2.2-.3Zm7.6,7.5a3.9,3.9,0,0,1-1.8-.9V12.4L163,9.2a40.8,40.8,0,0,1-5.4,3.1v3.8a14.1,14.1,0,0,1,2.5,1.5c-2.5.9-3.7,2.6-3.7,4.6a5.9,5.9,0,0,0,3.1,5.3l4.4-2.8,3.6,2.8,2.2-2.6Zm65.7-8.7-3.1,1.9V11.5l.3-.2,2.8,4.8Zm-.3-7c-1.5,1.1-4.5,3.1-6.3,4.2V24.6l4.3,3c1.3-1.5,2.7-2.8,4-4.1l-.3-.3c-.8.8-1.2,1.3-1.7,1.3s-1.1-.4-2.8-1.4V18.6l6.3-3.9c-1.4-2.1-2.6-3.9-3.5-5.5ZM258,24l-2.4,1.4a4.8,4.8,0,0,1-2-4.3c0-1.8.6-3.2,2.4-3.2a6.8,6.8,0,0,1,2,.3V24Zm-2.2-6.7-1.9.3V11.4h.2l3.8,2.7v3.7a8.2,8.2,0,0,0-2.2-.3Zm7.6,7.5a3.9,3.9,0,0,1-1.8-.9V12.4l-4.9-3.2a40.7,40.7,0,0,1-5.4,3.1v3.8a14.1,14.1,0,0,1,2.5,1.5c-2.5.9-3.7,2.6-3.7,4.6a5.9,5.9,0,0,0,3.1,5.3l4.4-2.8,3.6,2.8,2.2-2.6Zm16.8-.5-.6.5a36.3,36.3,0,0,1-3.7-2.4V10.8l2-1.2,2.4,2.3V24.3Zm3.6-13.7-9.1-9.4-3.1,2.4h0a5.3,5.3,0,0,1,1.9,1.4l4.1,4.1-5.3,3v12l4.8,3.4a33,33,0,0,1,6.7-5V10.7ZM125.8.8h-.2a3.1,3.1,0,0,1-1.8.6c-1.1,0-2.4-.8-3.6-.8S116.3,2,116,4.9h.2a2.8,2.8,0,0,1,2.7-1.6c1,0,2.5.7,3.2.7S124.9,3,125.8.8Zm30,23.9h0a6,6,0,0,1-2.1-.9V11.2l-2.7-2-2.4,2.6h0a3.5,3.5,0,0,1,1.4.8V25.2l3.2,2.4,2.5-2.9ZM153.8,4.4l-2.4-2-2,2.3,2.5,1.9,2-2.2ZM193,24.7h0a5.1,5.1,0,0,1-2.1-.9V11.8l-4.2-2.7L183.1,12l-4-2.8L175.6,12,172,9.2l-2.5,2.7h0c.6.1,1,.3,2.2,1.3V25.9l2.1,1.7,2.4-2.4-1-.6V12.9l1.8-1.4,2.5,1.7V25.9l2.1,1.7,2.5-2.4-1-.6V12.8l1.4-1.2,2.8,1.7V25.2l3.2,2.4,2.5-2.9Zm7.2,0h0a6,6,0,0,1-2.1-.9V11.2l-2.7-2-2.4,2.6h0a3.5,3.5,0,0,1,1.4.8V25.2l3.2,2.4,2.5-2.9ZM198.1,4.4l-2.4-2-2,2.3,2.5,1.9,2-2.2ZM213,4.3h-.1c-2.5.7-4.3,2.3-4.3,5.4v1.8h-.8a2.8,2.8,0,0,0-3.1,2.8,2.5,2.5,0,0,0,.8,2h.1c.1-.8.7-1.5,2.1-1.5h.9v5a2.7,2.7,0,0,1-.8,2h.2a6,6,0,0,0,4.6-5.6V8.2c0-2.2.2-3.1.5-3.8Zm14.6-3.2h-.1a6.8,6.8,0,0,1-2.6.5A5.4,5.4,0,0,1,221.3.1L218.6,3a5.5,5.5,0,0,0,2.7,1.4v7.1h-6.6V.3h-.5V23.8a10,10,0,0,0-4.2-1,6.4,6.4,0,0,0-6.4,4.3v.2a8.7,8.7,0,0,1,4.6-1.2,8.2,8.2,0,0,1,5.1,1.5c1.1-1.5,2.6-3.2,3.4-4.2l-.3-.2c-.3.5-.8,1-1.2,1l-.6-.2V14.8h6.6v8.5a5.1,5.1,0,0,0-4.1,4.1h0a6.9,6.9,0,0,1,4-1.2,5.2,5.2,0,0,1,3.6,1.4l2.8-3a6.5,6.5,0,0,0-2.3-1V4.2a4.7,4.7,0,0,0,2.4-3ZM213.2,1h-.1a3,3,0,0,1-1.9.7c-1.1,0-2.4-.8-3.6-.8s-3.8,1.4-4.1,4.3h.1a2.8,2.8,0,0,1,2.7-1.6c1,0,2.5.7,3.2.7s2.7-1.3,3.6-3.4Zm37.5,10h0A5.2,5.2,0,0,1,247,9.2l-2.7,2.6-3.3-2.6-2.4,2.7h0a5.4,5.4,0,0,1,2,1.3V24.6l4.4,3,3.4-3.6-.2-.2c-.5.5-.8.7-1.2.7s-1.1-.3-2.8-1.3V12.4l.3-.3a3.7,3.7,0,0,0,3,1.4c1.4,0,2.6-1,3.3-2.5Zm20.4,13.8-2.6,2.9-3.2-2.4V6.2a1.5,1.5,0,0,0-.9-1.6h0l4.4-3.2h.1V23.7a5,5,0,0,0,2.2,1Z"/>
  </g>
</svg>
